{"title":"Al Risalah [1976] DVDRip [Arabic] - Ayachi","uid":6450034,"size":1498161152,"categoryP":"video","categoryS":"movies","magnet":"?xt=urn:btih:2c968d1972b5e8fd1b883299053659e1e1388bbc&amp;dn=Al+Risalah+%5B1976%5D+DVDRip+%5BArabic%5D+-+Ayachi&amp;tr=udp%3A%2F%2Ftracker.openbittorrent.com%3A80&amp;tr=udp%3A%2F%2Fopen.demonii.com%3A1337&amp;tr=udp%3A%2F%2Ftracker.coppersurfer.tk%3A6969&amp;tr=udp%3A%2F%2Fexodus.desync.com%3A6969","seeders":0,"leechers":0,"uploader":"uT0rrent","files":1,"time":1307392189,"description":"General\nFormat                           : AVI\nFormat/Info                      : Audio Video Interleave\nFile size                        : 1.40 GiB\nDuration                         : 3h 8mn\nOverall bit rate                 : 1 062 Kbps\n\nVideo\nID                               : 0\nFormat                           : MPEG-4 Visual\nFormat profile                   : Advanced Simple@L5\nFormat settings, BVOP            : 2\nFormat settings, QPel            : No\nFormat settings, GMC             : No warppoints\nFormat settings, Matrix          : Default (H.263)\nMuxing mode                      : Packed bitstream\nCodec ID                         : DX50\nCodec ID/Hint                    : DivX 5\nDuration                         : 3h 8mn\nBit rate                         : 924 Kbps\nWidth                            : 352 pixels\nHeight                           : 288 pixels\nDisplay aspect ratio             : 1.222\nFrame rate                       : 25.000 fps\nStandard                         : PAL\nColor space                      : YUV\nChroma subsampling               : 4:2:0\nBit depth                        : 8 bits\nScan type                        : Progressive\nCompression mode                 : Lossy\nBits/(Pixel*Frame)               : 0.365\nStream size                      : 1.21 GiB (87%)\nWriting library                  : XviD 64\n\nAudio\nID                               : 1\nFormat                           : AC-3\nFormat/Info                      : Audio Coding 3\nMode extension                   : CM (complete main)\nCodec ID                         : 2000\nDuration                         : 3h 8mn\nBit rate mode                    : Constant\nBit rate                         : 128 Kbps\nChannel(s)                       : 2 channels\nChannel positions                : Front: L R\nSampling rate                    : 48.0 KHz\nBit depth                        : 16 bits\nCompression mode                 : Lossy\nStream size                      : 172 MiB (12%)\nAlignment                        : Aligned on interleaves\nInterleave, duration             : 40 ms (1.00 video frame)\nInterleave, preload duration     : 512 ms","torrent":{"xt":"urn:btih:2c968d1972b5e8fd1b883299053659e1e1388bbc","amp;dn":"Al+Risalah+%5B1976%5D+DVDRip+%5BArabic%5D+-+Ayachi","amp;tr":["udp%3A%2F%2Ftracker.openbittorrent.com%3A80","udp%3A%2F%2Fopen.demonii.com%3A1337","udp%3A%2F%2Ftracker.coppersurfer.tk%3A6969","udp%3A%2F%2Fexodus.desync.com%3A6969"],"infoHash":"2c968d1972b5e8fd1b883299053659e1e1388bbc","infoHashBuffer":{"type":"Buffer","data":[44,150,141,25,114,181,232,253,27,136,50,153,5,54,89,225,225,56,139,188]},"announce":[],"urlList":[]}}